<?xml version="1.0" standalone="no"?>
<!DOCTYPE svg PUBLIC "-//W3C//DTD SVG 20010904//EN"
 "http://www.w3.org/TR/2001/REC-SVG-20010904/DTD/svg10.dtd">
<svg version="1.0" xmlns="http://www.w3.org/2000/svg"
 width="300.000000pt" height="300.000000pt" viewBox="0 0 300.000000 300.000000"
 preserveAspectRatio="xMidYMid meet">
<metadata>
Created by potrace 1.10, written by Peter Selinger 2001-2011
</metadata>
<g transform="translate(0.000000,300.000000) scale(0.100000,-0.100000)"
fill="#000000" stroke="none">
<path d="M1955 2303 c-57 -8 -832 -102 -1095 -134 -146 -17 -271 -33 -279 -35
-10 -3 -12 -18 -6 -67 32 -287 30 -272 50 -269 11 2 20 5 21 5 1 1 -7 67 -18
146 -10 79 -18 145 -16 146 3 3 38 7 673 85 226 28 482 59 569 70 87 11 160
19 162 18 1 -2 10 -70 20 -151 12 -104 21 -147 30 -147 7 0 16 5 19 10 6 9
-18 246 -31 308 -5 23 -22 25 -99 15z"/>
<path d="M355 1698 c-3 -7 -4 -119 -3 -248 l3 -235 25 0 25 0 0 245 0 245 -23
3 c-12 2 -24 -3 -27 -10z"/>
<path d="M555 1698 c-3 -7 -4 -119 -3 -248 l3 -235 165 0 165 0 0 25 0 25
-137 3 -138 3 -2 217 c-3 217 -3 217 -26 220 -12 2 -24 -3 -27 -10z"/>
<path d="M1035 1698 c-3 -7 -4 -119 -3 -248 l3 -235 25 0 c25 0 25 0 28 108
l3 107 139 0 139 0 3 -107 c3 -108 3 -108 28 -108 l25 0 0 245 0 245 -25 0
c-25 0 -25 0 -28 -105 l-3 -105 -139 0 -139 0 -3 105 c-3 100 -4 105 -26 108
-12 2 -24 -3 -27 -10z"/>
<path d="M1751 1648 c-15 -35 -65 -143 -110 -241 -45 -97 -79 -182 -76 -187
12 -19 36 -10 83 29 77 65 176 100 245 87 30 -6 37 -14 60 -67 22 -51 30 -60
49 -57 13 2 24 10 26 19 1 9 -44 119 -101 245 -122 269 -129 276 -176 172z
m59 -58 c0 -7 68 -156 87 -191 2 -4 -27 -8 -64 -11 -42 -3 -84 -13 -111 -27
-24 -12 -46 -20 -49 -17 -3 3 3 17 14 33 21 30 86 164 97 201 7 22 26 31 26
12z"/>
<path d="M2172 1698 c-9 -9 -12 -76 -12 -239 0 -240 3 -256 47 -247 17 3 18
18 18 176 -1 94 2 172 6 172 3 0 11 -12 18 -27 24 -54 143 -242 155 -246 21
-8 29 2 112 142 l79 135 5 -175 5 -174 25 0 25 0 0 245 0 245 -25 0 c-21 0
-36 -21 -112 -150 -113 -194 -105 -183 -115 -167 -4 7 -48 83 -98 167 -88 151
-106 170 -133 143z"/>
<path d="M2310 1113 c0 -10 7 -67 15 -128 21 -155 21 -153 -17 -159 -55 -9
-1338 -166 -1357 -166 -15 0 -19 17 -30 123 -16 158 -19 167 -43 167 -16 0
-19 -5 -14 -27 3 -16 12 -89 21 -163 9 -74 19 -138 23 -141 4 -4 108 6 232 22
124 15 452 56 730 89 278 34 508 65 511 68 3 4 -3 80 -14 170 -18 143 -22 162
-39 162 -11 0 -18 -7 -18 -17z"/>
</g>
</svg>
